<?xml version="1.0" standalone="no"?>
<!DOCTYPE svg PUBLIC "-//W3C//DTD SVG 20010904//EN"
 "http://www.w3.org/TR/2001/REC-SVG-20010904/DTD/svg10.dtd">
<svg version="1.0" xmlns="http://www.w3.org/2000/svg"
 width="1024.000000pt" height="1024.000000pt" viewBox="0 0 1024.000000 1024.000000"
 preserveAspectRatio="xMidYMid meet">

<g transform="translate(0.000000,1024.000000) scale(0.100000,-0.100000)"
fill="#000000" stroke="none">
<path d="M5520 9525 c-286 -61 -494 -235 -605 -505 -40 -98 -42 -115 -16 -130
19 -9 16 -18 -52 -163 -68 -144 -72 -156 -72 -222 1 -75 27 -142 76 -194 l23
-24 41 89 c55 116 296 571 339 637 160 248 484 308 740 137 81 -55 120 -95
162 -165 28 -49 28 -72 0 -140 l-15 -36 -83 63 c-97 74 -237 142 -326 158
-115 20 -217 -18 -280 -105 -76 -104 -346 -620 -367 -700 -30 -115 -12 -252
49 -380 39 -80 103 -146 186 -191 l48 -26 7 -72 c4 -39 20 -147 36 -241 15
-93 26 -171 23 -174 -7 -8 -193 18 -216 30 -18 10 -19 8 -13 -13 10 -32 62
-126 92 -166 l24 -32 -49 -58 c-27 -31 -67 -84 -88 -117 l-39 -60 -8 60 c-32
228 -193 1090 -232 1248 -6 21 -20 31 -77 53 -82 31 -170 107 -210 181 -86
159 -75 351 32 524 16 27 30 54 30 59 0 28 -162 -3 -237 -45 l-42 -23 -69 87
c-133 169 -290 273 -503 334 -314 91 -742 42 -1084 -123 -124 -61 -205 -124
-244 -191 -60 -106 -49 -189 64 -469 41 -102 75 -191 75 -198 0 -16 21 -15 46
2 22 16 207 96 220 96 7 0 26 -39 82 -172 2 -4 -54 -36 -125 -71 -475 -239
-1325 -707 -1402 -774 -22 -18 -49 -52 -60 -76 -32 -66 -27 -113 24 -226 24
-55 54 -128 66 -163 22 -65 22 -106 4 -293 -5 -49 -3 -66 13 -91 11 -16 131
-129 268 -250 137 -120 310 -275 384 -344 138 -128 339 -330 340 -341 0 -4
-54 -8 -119 -8 l-119 -2 -50 43 c-27 24 -94 81 -148 128 -531 459 -694 602
-723 635 -70 80 -85 155 -56 285 27 121 26 127 -71 370 -34 84 -38 105 -38
185 -1 81 2 97 30 155 71 147 95 164 799 554 121 68 276 153 345 191 69 38
127 70 130 72 16 14 -116 61 -205 74 -160 22 -315 -20 -595 -160 -402 -201
-645 -409 -745 -636 -81 -182 -72 -408 21 -586 l37 -70 -21 -72 c-29 -100 -35
-170 -22 -250 28 -178 97 -278 330 -480 58 -50 142 -124 187 -165 l83 -74 -56
-61 c-114 -127 -192 -270 -237 -441 l-22 -81 0 -1835 c0 -1751 1 -1839 19
-1914 21 -93 54 -183 97 -269 156 -308 467 -528 838 -592 75 -13 463 -15 3091
-12 l3005 3 86 21 c274 68 483 179 648 341 198 196 311 416 367 709 25 134 30
452 10 646 l-17 159 41 44 c170 184 263 490 263 864 0 191 -15 302 -60 444
-29 93 -101 239 -150 303 -32 42 -33 46 -33 141 l0 97 54 47 c34 30 65 69 83
105 l28 58 3 1345 c2 975 0 1361 -8 1405 -17 86 -64 171 -130 235 -48 46 -61
66 -80 125 -97 303 -366 547 -695 630 -66 16 -403 39 -431 28 -8 -3 -11 58
-10 224 1 245 -5 287 -59 393 -60 119 -210 250 -325 285 -14 4 9 -15 51 -44
116 -77 181 -169 215 -304 19 -73 20 -142 9 -574 -6 -239 -5 -323 3 -323 7 0
47 10 89 22 102 29 322 31 423 5 218 -57 382 -215 457 -437 17 -53 18 -134 21
-1798 l2 -1742 39 -39 c40 -40 106 -132 134 -188 9 -17 29 -67 44 -110 26 -76
27 -86 31 -346 2 -163 -1 -301 -7 -350 -24 -180 -88 -321 -193 -430 l-58 -59
0 -327 c0 -342 -8 -447 -41 -571 -23 -86 -92 -236 -140 -307 -47 -69 -154
-178 -224 -228 -128 -91 -315 -165 -465 -185 -60 -8 -951 -10 -3075 -8 l-2990
3 -80 28 c-161 57 -251 112 -355 217 -122 123 -175 212 -227 386 -17 55 -18
166 -21 1784 -2 1237 0 1747 8 1804 30 206 139 387 302 497 l59 40 67 -62 c37
-34 68 -65 70 -69 1 -4 -16 -19 -38 -35 -113 -79 -217 -228 -250 -360 -10 -39
-12 -418 -11 -1768 2 -1697 2 -1719 22 -1785 64 -209 231 -367 445 -422 76
-20 117 -20 3049 -20 2895 0 2974 0 3047 19 261 67 450 226 544 459 57 142 58
149 62 555 l3 377 -1093 0 c-950 0 -1102 2 -1153 15 -151 40 -291 157 -364
305 -41 85 -71 202 -71 281 0 70 30 192 66 267 64 133 203 257 343 305 l66 22
1060 3 c997 3 1062 2 1093 -14 36 -19 72 -78 72 -117 l0 -25 -200 -8 c-169 -8
-198 -11 -190 -23 7 -13 11 -13 26 0 15 12 16 12 10 -9 -6 -18 -4 -22 12 -22
15 0 19 5 16 23 -4 20 -4 20 5 2 8 -18 9 -19 16 -3 4 10 11 15 16 12 14 -8 11
-24 -5 -24 -8 0 -18 -5 -22 -12 -5 -8 0 -9 17 -5 21 5 22 4 7 -7 -11 -8 -14
-17 -7 -27 12 -19 11 -32 -1 -24 -5 3 -10 -1 -10 -9 0 -9 9 -16 20 -16 23 0
24 4 10 30 -7 14 -6 23 6 34 17 17 40 21 48 8 3 -5 -5 -8 -17 -8 -13 1 -22 -5
-22 -14 0 -8 6 -14 13 -13 6 2 12 -2 12 -7 0 -6 -4 -10 -8 -10 -5 0 -14 -12
-21 -26 -9 -21 -9 -30 1 -43 12 -14 11 -15 -4 -2 -10 7 -18 20 -18 27 0 8 -7
14 -15 14 -18 0 -19 -12 -4 -27 9 -9 6 -10 -11 -6 -20 5 -21 3 -16 -18 l7 -24
-20 23 c-21 24 -41 22 -41 -3 0 -21 -31 -11 -46 16 -7 13 -13 18 -14 10 0 -7
-6 -11 -14 -8 -13 5 -46 -25 -46 -43 0 -6 -9 -10 -20 -10 -12 0 -20 -7 -20
-16 0 -10 6 -14 15 -10 10 4 20 -6 30 -31 16 -38 20 -61 8 -49 -5 4 -9 11 -9
14 -8 40 -18 52 -45 52 -31 0 -39 -14 -13 -24 12 -5 14 -10 5 -20 -6 -7 -8
-16 -4 -19 3 -4 1 -7 -5 -7 -6 0 -14 4 -17 10 -3 5 -1 10 6 10 9 0 10 3 3 10
-11 11 -44 3 -44 -10 0 -4 7 -10 15 -14 8 -3 15 -13 15 -21 0 -15 -2 -15 -16
0 -16 15 -20 13 -58 -29 -27 -30 -45 -43 -54 -38 -9 6 -4 14 18 30 29 22 41
62 19 62 -5 0 -8 -4 -5 -9 8 -13 -4 -41 -18 -41 -6 0 -17 -9 -24 -20 -7 -12
-17 -18 -23 -15 -5 4 -23 -5 -40 -19 -17 -14 -26 -26 -20 -26 6 0 18 9 28 19
13 13 26 18 46 14 15 -3 27 -8 27 -12 0 -4 -16 -24 -35 -45 -27 -30 -34 -44
-30 -67 4 -20 0 -31 -12 -39 -13 -8 -14 -13 -5 -16 13 -6 7 -24 -9 -24 -6 0
-7 5 -4 10 3 6 1 10 -4 10 -18 0 -12 18 7 24 10 3 18 15 18 26 0 11 -1 20 -2
20 -11 0 -72 -65 -67 -72 3 -6 -3 -8 -12 -6 -25 4 -30 26 -8 30 11 2 14 6 7
10 -6 4 -20 -2 -32 -12 -12 -11 -26 -20 -32 -20 -6 0 -9 -4 -6 -9 3 -5 -3 -11
-14 -14 -11 -3 -20 -11 -20 -17 0 -9 3 -10 13 -1 8 6 16 8 20 5 3 -3 10 4 17
15 6 12 15 21 21 21 17 0 -2 -43 -29 -67 -22 -18 -24 -24 -13 -37 8 -9 9 -16
3 -16 -5 0 -12 6 -15 14 -6 16 -70 28 -64 12 2 -6 14 -10 26 -9 25 3 26 -3 5
-24 -13 -14 -17 -14 -24 -2 -7 11 -13 9 -33 -9 -22 -21 -54 -31 -43 -13 3 4
-6 13 -19 19 -27 12 -33 4 -13 -16 9 -9 7 -12 -10 -12 -12 0 -22 4 -22 9 0 5
-9 7 -20 4 -11 -3 -20 -10 -20 -15 0 -5 -4 -6 -10 -3 -15 9 -12 25 5 25 8 0
15 5 15 10 0 6 -13 4 -30 -5 -16 -8 -42 -15 -57 -16 -23 0 -25 -2 -9 -8 15 -6
16 -10 7 -15 -7 -5 -18 -3 -24 3 -17 17 -36 13 -32 -6 2 -10 4 -20 4 -23 1 -3
5 1 10 9 8 12 12 12 24 3 12 -10 18 -10 30 2 13 14 15 13 20 -5 4 -16 2 -19
-10 -15 -9 4 -23 1 -31 -6 -13 -11 -14 -11 -8 0 6 10 1 11 -21 6 -15 -4 -33
-11 -39 -15 -6 -5 -16 -3 -22 3 -9 9 -15 9 -24 0 -9 -9 -14 -7 -24 6 -8 10
-13 12 -14 5 0 -7 -12 -13 -27 -13 -18 0 -24 -3 -15 -8 7 -5 -16 -9 -55 -10
-36 -1 -69 -4 -71 -7 -3 -3 306 -5 686 -5 l691 0 81 30 c56 21 100 30 140 30
51 0 64 4 101 32 50 39 92 110 114 193 22 88 22 608 -1 686 -35 116 -97 198
-191 249 l-43 24 -2 1815 -3 1816 -23 48 c-35 69 -102 134 -178 169 l-66 31
-167 -2 c-151 -2 -171 -4 -218 -26 -68 -31 -138 -102 -171 -173 l-27 -57 -3
-655 -3 -655 -38 115 c-44 133 -94 242 -162 356 l-48 80 19 230 c10 126 28
346 40 489 11 143 29 357 40 475 33 359 60 712 60 776 0 117 -48 196 -147 245
l-48 24 -425 -3 c-392 -3 -430 -5 -484 -24 -111 -36 -173 -93 -255 -230 -28
-47 -68 -101 -88 -118 -45 -40 -130 -79 -188 -87 l-43 -5 -4 42 c-3 33 0 44
14 51 10 6 49 73 87 150 94 190 161 270 294 352 109 66 199 90 372 95 83 2
153 7 158 11 4 4 -26 26 -66 49 -246 141 -472 133 -726 -25 l-74 -46 -21 29
c-100 140 -281 264 -451 309 -84 23 -245 28 -325 10z m-1747 -629 c164 -49
279 -122 372 -238 87 -108 134 -154 175 -173 40 -18 40 -19 40 -72 0 -77 16
-135 65 -239 36 -74 56 -102 114 -157 42 -39 100 -81 140 -101 l68 -35 7 -53
c4 -29 27 -161 51 -294 25 -132 45 -248 45 -257 0 -15 -13 -17 -95 -17 -52 0
-95 1 -95 3 0 2 -34 200 -80 462 -12 66 -27 144 -33 174 l-12 55 -50 11 c-165
38 -285 160 -302 307 -7 54 -20 71 -218 272 -123 125 -247 176 -431 176 -87 0
-285 -38 -307 -60 -5 -4 39 -135 97 -289 128 -339 193 -534 235 -701 34 -137
72 -350 65 -361 -2 -5 -21 -1 -41 7 -20 9 -54 19 -76 22 l-40 7 -52 185 c-70
243 -109 352 -359 987 -57 145 -64 180 -45 230 26 71 88 107 248 147 133 34
139 35 291 31 111 -2 151 -7 223 -29z m2050 -145 c62 -27 130 -79 146 -110 7
-12 4 -16 -12 -18 -115 -11 -137 -16 -126 -30 15 -18 5 -27 -46 -43 -45 -13
-102 -36 -125 -50 -8 -5 -38 -22 -66 -39 -28 -16 -59 -37 -68 -46 -22 -23 -21
-78 4 -100 25 -23 56 -15 112 30 61 49 139 95 162 95 36 0 101 -39 121 -72 14
-24 20 -52 20 -98 0 -82 -31 -151 -86 -189 -21 -14 -36 -32 -34 -38 3 -7 8
-19 11 -27 7 -18 -34 -56 -61 -56 -11 0 -26 5 -32 11 -9 9 -28 5 -77 -15 -37
-14 -76 -26 -89 -26 -18 0 -19 -2 -7 -10 13 -9 13 -11 0 -20 -22 -15 -81 -30
-115 -30 -103 0 -181 152 -154 300 16 85 182 409 306 596 22 32 129 25 216
-15z m1897 -76 c0 -37 -51 -770 -60 -865 -6 -58 -15 -184 -20 -280 -18 -305
-40 -593 -45 -598 -2 -3 -28 18 -57 46 -30 29 -69 63 -88 77 -19 15 -34 29
-33 33 0 4 8 138 17 297 9 160 26 443 37 630 11 187 21 365 22 395 l2 55 -287
3 -286 2 -46 -64 c-25 -35 -71 -87 -102 -114 -94 -84 -254 -152 -359 -152 -69
0 -67 6 -82 -252 -7 -128 -16 -282 -20 -343 l-8 -110 -72 -14 c-40 -8 -75 -13
-77 -10 -3 3 -10 120 -16 261 l-10 256 35 59 c39 66 77 169 96 260 l13 62 50
6 c203 28 371 143 449 307 l32 68 458 0 c401 0 457 -2 457 -15z m-4016 -200
c84 -29 143 -73 219 -165 63 -75 75 -96 81 -137 7 -56 49 -143 97 -202 41 -52
147 -124 217 -148 36 -12 54 -24 57 -38 2 -11 23 -130 45 -264 23 -135 44
-251 47 -258 3 -7 -3 -15 -13 -19 -97 -30 -179 -99 -222 -186 -17 -35 -33 -70
-36 -79 -3 -12 -23 -17 -78 -22 -41 -4 -92 -13 -114 -21 l-41 -14 -16 36 c-9
21 -37 68 -62 106 -40 61 -46 78 -55 155 -44 367 -144 741 -314 1178 -20 51
-36 95 -36 99 0 12 174 -4 224 -21z m3525 -205 l54 0 -7 -147 c-4 -82 -9 -177
-12 -213 -12 -171 -34 -573 -34 -637 0 -48 -4 -73 -11 -73 -7 0 -33 13 -60 29
-26 17 -78 44 -116 62 -37 17 -70 33 -72 35 -3 2 6 15 19 29 18 19 25 40 28
85 4 49 8 60 22 60 20 0 30 19 30 56 0 17 -7 25 -25 30 -24 6 -25 10 -25 79 0
96 -9 104 -124 109 -74 3 -91 0 -111 -16 -22 -17 -25 -27 -25 -88 0 -67 0 -69
-27 -72 -25 -3 -28 -7 -31 -45 -3 -40 -2 -43 23 -43 25 0 26 -1 23 -60 -2 -33
-4 -60 -5 -60 -1 0 -30 6 -65 14 -35 8 -85 14 -113 15 -27 1 -53 5 -57 9 -5 5
14 497 22 540 0 1 13 2 28 2 39 0 129 32 204 72 71 38 161 117 204 180 16 24
33 47 39 51 5 5 46 6 90 3 44 -3 104 -6 134 -6z m-4141 -392 c11 -35 40 -115
65 -178 25 -64 61 -169 80 -233 l34 -117 -26 -6 c-83 -19 -113 -29 -176 -61
-226 -114 -355 -324 -355 -578 0 -260 128 -461 365 -576 85 -41 223 -74 281
-67 39 5 39 6 19 -32 -15 -30 -67 -67 -180 -129 -33 -18 -113 -67 -178 -109
l-119 -75 -66 64 c-89 87 -84 81 -115 109 l-27 24 -43 -40 c-23 -22 -57 -53
-75 -69 l-32 -29 -143 140 c-78 77 -229 220 -334 318 -106 98 -193 180 -193
181 0 2 28 13 63 24 110 37 230 130 294 229 74 115 96 243 69 401 -9 51 -18
97 -21 101 -2 4 -42 -5 -87 -20 -69 -22 -82 -30 -80 -46 12 -69 13 -154 2
-205 -26 -119 -122 -229 -231 -264 -30 -9 -63 -21 -75 -27 -11 -5 -36 -10 -54
-11 l-33 -2 2 80 c2 98 -20 220 -60 328 -48 130 -51 117 38 174 130 84 601
360 828 486 119 66 527 277 537 277 3 0 15 -28 26 -62z m2866 -419 l7 -106
-63 -23 c-64 -23 -167 -72 -225 -106 -17 -10 -34 -16 -36 -14 -5 5 -67 357
-67 377 0 5 36 14 80 21 87 12 158 39 235 88 l50 32 6 -82 c4 -44 10 -129 13
-187z m966 181 c0 -38 -2 -40 -30 -40 -28 0 -30 2 -30 40 0 38 2 40 30 40 28
0 30 -2 30 -40z m1731 -150 l30 -30 -5 -142 c-3 -79 -5 -159 -6 -179 0 -35 -2
-37 -41 -42 -22 -3 -55 -16 -74 -28 -68 -47 -65 -9 -65 -839 l0 -749 -45 16
c-36 12 -45 20 -45 38 0 48 -53 256 -98 385 l-47 135 -3 685 c-1 377 0 696 3
708 3 13 18 35 32 48 25 23 31 24 180 24 l155 0 29 -30z m-1743 -29 c-3 -42
-5 -46 -30 -49 -27 -3 -28 -1 -28 41 0 51 2 55 36 55 24 0 25 -3 22 -47z
m-394 -281 c191 -16 379 -69 533 -149 115 -61 109 -54 86 -87 -11 -16 -68
-114 -127 -219 -148 -260 -197 -345 -201 -345 -2 0 -81 79 -177 176 -168 171
-173 175 -179 147 -4 -15 -7 -235 -8 -488 -1 -253 -5 -465 -9 -471 -10 -16
-129 -87 -262 -157 -63 -33 -119 -64 -125 -68 -5 -5 -208 -9 -452 -9 l-442 0
-10 38 c-24 89 -32 141 -38 242 -20 352 119 730 366 992 103 110 224 198 376
273 138 68 236 100 375 120 109 16 148 17 294 5z m-3009 -65 c73 -34 135 -77
128 -87 -3 -6 -1 -8 5 -4 10 6 82 -69 82 -85 0 -14 -19 -19 -26 -8 -4 8 -3 9
4 5 7 -4 12 -2 12 3 0 6 -7 11 -15 11 -8 0 -12 6 -9 14 3 7 -2 16 -10 19 -17
7 -23 -18 -7 -27 5 -3 11 -15 14 -27 5 -19 4 -19 -11 -6 -28 23 -46 32 -37 17
4 -7 2 -16 -6 -21 -10 -6 -11 -9 -1 -9 6 0 12 -4 12 -9 0 -5 -12 -8 -26 -8
-18 0 -24 4 -20 14 3 8 1 11 -4 8 -6 -4 -17 1 -26 9 -32 33 -30 15 2 -21 19
-20 34 -42 34 -47 0 -6 -23 -21 -50 -33 l-50 -22 -28 24 c-16 13 -51 29 -78
36 -27 6 -55 16 -61 22 -9 6 -13 6 -13 -1 0 -6 -6 -9 -14 -6 -17 7 -36 -25
-36 -60 0 -34 31 -52 104 -61 151 -18 226 -83 211 -184 -13 -87 -61 -145 -129
-157 -44 -7 -56 -17 -56 -50 0 -17 -8 -23 -36 -27 -52 -9 -64 -1 -64 44 0 38
-1 39 -37 39 -21 0 -44 4 -52 9 -17 11 -41 -9 -41 -35 0 -14 -7 -16 -42 -10
l-43 6 25 -20 c14 -11 20 -20 15 -20 -20 0 -115 92 -141 136 -81 138 -70 343
25 475 56 78 130 130 236 166 57 19 209 11 260 -12z m1354 -88 c52 -26 59 -56
62 -266 l4 -195 -30 -8 c-83 -23 -194 -146 -215 -240 -8 -34 -14 -184 -17
-428 l-5 -375 -129 -3 -129 -3 0 701 c0 746 0 740 48 783 40 36 91 46 242 46
96 1 153 -3 169 -12z m-1210 -157 c-13 -9 -39 -2 -39 10 0 4 12 5 26 2 17 -3
22 -7 13 -12z m105 -6 c9 -24 2 -26 -12 -4 -7 11 -8 20 -3 20 5 0 12 -7 15
-16z m3605 -96 c45 -38 152 -163 186 -219 l33 -53 -70 -48 c-38 -26 -73 -48
-78 -48 -5 0 -10 -3 -12 -8 -3 -8 -101 -72 -111 -72 -17 0 -157 -99 -146 -103
8 -2 4 -2 -8 -1 -12 2 -28 -2 -35 -8 -7 -7 -32 -26 -55 -42 -51 -34 -55 -43
-10 -20 50 26 28 9 -79 -61 -55 -36 -105 -63 -112 -60 -7 3 -10 1 -7 -5 3 -5
-4 -14 -15 -20 -11 -6 -20 -8 -20 -6 0 3 24 45 53 93 125 205 151 248 267 448
68 116 132 223 143 238 21 31 33 30 76 -5z m325 -535 c48 -96 90 -259 101
-398 6 -83 -10 -304 -24 -318 -10 -10 -1206 -21 -1268 -12 l-45 7 34 23 c19
13 115 72 214 133 352 215 561 345 689 427 190 123 258 165 272 165 7 0 19
-12 27 -27z m-3657 -290 c46 -31 52 -62 46 -256 l-6 -177 -267 0 -268 0 -4
153 c-2 83 -1 169 3 190 7 40 40 83 74 97 11 5 105 9 208 9 161 1 191 -1 214
-16z m856 -420 c-7 -2 -21 -2 -30 0 -10 3 -4 5 12 5 17 0 24 -2 18 -5z m3435
-223 c166 -21 322 -168 322 -302 0 -28 -1 -28 -54 30 -36 38 -78 70 -122 93
l-68 34 -256 3 -257 3 -65 -44 c-35 -24 -81 -52 -101 -62 -20 -9 -37 -20 -37
-24 0 -6 -193 -8 -1105 -13 -253 -1 33 -5 635 -8 l1095 -5 50 -23 c76 -35 128
-91 149 -160 18 -55 201 -52 -3078 -52 -2995 -1 -3146 1 -3146 31 0 25 130
138 195 170 l69 34 301 5 c287 6 291 6 105 9 -164 3 -346 14 -302 20 6 0 12
12 12 26 0 14 6 25 13 26 8 0 8 2 -2 6 -10 4 -8 9 10 19 13 7 18 13 12 14 -27
0 -11 19 20 23 20 2 12 4 -23 5 -33 1 -61 -3 -68 -10 -10 -10 -15 -10 -21 1
-7 11 -36 12 -137 9 -110 -4 -137 -8 -179 -28 -71 -34 -149 -115 -171 -178
-10 -29 -22 -52 -26 -52 -26 0 -78 103 -78 154 1 33 35 100 73 143 40 44 108
81 182 99 39 10 709 12 3020 12 1634 0 2998 -3 3033 -8z m-5663 -160 c3 -5 2
-10 -4 -10 -5 0 -13 5 -16 10 -3 6 -2 10 4 10 5 0 13 -4 16 -10z m-581 -484
c32 -19 94 -47 137 -61 166 -56 110 -55 3302 -55 l2929 0 -8 -92 c-4 -51 -8
-101 -8 -110 0 -10 -3 -18 -6 -18 -3 0 -6 -12 -5 -27 0 -16 -6 -31 -15 -35
-13 -6 -13 -7 0 -7 12 -1 14 -12 12 -54 -4 -53 -4 -53 -33 -49 -38 6 -101 -6
-94 -18 3 -5 1 -11 -5 -15 -5 -3 -10 -19 -10 -35 0 -16 -7 -36 -16 -44 -14
-14 -14 -16 0 -16 10 0 13 -6 9 -16 -3 -8 -12 -13 -19 -10 -8 3 -14 1 -14 -5
0 -5 7 -12 15 -15 8 -4 15 -10 15 -15 0 -5 -7 -9 -15 -9 -8 0 -15 5 -15 11 0
5 -5 7 -12 3 -9 -6 -9 -9 0 -12 18 -6 14 -26 -8 -40 -12 -7 -18 -17 -15 -22 4
-6 -37 -10 -107 -10 -98 1 -111 2 -95 14 10 8 14 17 9 20 -4 2 -15 -4 -22 -15
-15 -20 -80 -28 -80 -9 0 6 -5 10 -11 10 -5 0 -8 -4 -4 -10 3 -5 -227 -10
-617 -12 -604 -4 -625 -5 -691 -25 -159 -51 -262 -117 -381 -244 -186 -201
-260 -499 -188 -765 69 -256 266 -473 511 -562 51 -18 79 -37 122 -80 88 -90
159 -147 176 -144 11 3 14 -1 9 -13 -3 -9 -2 -13 4 -10 6 3 10 -1 10 -9 0 -9
4 -16 9 -16 5 0 17 -8 27 -17 10 -10 19 -13 21 -8 10 30 22 40 34 28 9 -9 8
-16 -5 -28 -20 -21 -21 -20 9 -39 14 -9 25 -12 25 -6 0 6 -9 14 -21 18 -18 7
-19 10 -5 21 13 11 20 8 46 -19 16 -17 30 -27 30 -23 0 4 7 -3 16 -15 8 -12
12 -27 9 -32 -12 -19 11 -10 29 12 13 14 15 23 8 26 -15 5 -16 32 -1 32 6 0 8
7 5 16 -4 12 -2 15 9 10 9 -3 15 0 15 9 0 9 6 12 17 8 15 -6 15 -5 3 8 -12 14
-16 13 -33 -4 -10 -10 -22 -16 -25 -12 -4 3 0 10 7 14 8 5 9 11 3 15 -5 3 -16
-2 -23 -11 -11 -13 -11 -17 -1 -20 13 -5 17 -33 4 -33 -11 0 -42 38 -42 52 0
9 -3 9 -12 0 -9 -9 -5 -17 15 -36 15 -14 23 -27 19 -30 -11 -7 -27 5 -41 31
-6 13 -17 22 -24 20 -7 -1 -11 6 -11 15 1 11 -3 15 -10 11 -6 -3 -5 0 2 8 11
12 14 12 23 -1 8 -11 12 -12 16 -2 7 19 162 17 169 -3 4 -8 10 -12 15 -9 5 3
7 9 4 14 -3 4 88 9 201 9 177 1 205 -1 195 -13 -9 -11 -9 -16 1 -22 7 -4 10
-4 6 1 -12 13 23 32 59 33 l32 1 -20 -32 c-10 -18 -19 -36 -19 -42 0 -5 8 4
18 20 27 44 51 62 62 46 5 -9 10 -10 14 -3 8 14 47 11 43 -3 -5 -13 18 -35 37
-35 9 0 16 8 16 18 0 11 -3 13 -8 5 -8 -13 -26 -5 -29 13 -1 6 11 11 27 11 16
0 27 -4 24 -9 -8 -13 18 -34 45 -35 14 -1 29 -9 33 -18 5 -8 14 -13 19 -10 5
4 7 11 4 16 -4 5 1 9 9 9 9 0 16 5 16 10 0 14 -13 13 -28 -2 -9 -9 -15 -9 -24
0 -7 7 -22 12 -35 12 -13 0 -23 6 -23 14 0 10 11 14 35 13 20 -1 30 -4 23 -8
-7 -5 -9 -11 -5 -15 4 -4 15 0 24 8 21 18 43 13 43 -10 0 -14 2 -15 9 -2 6 8
8 17 6 20 -2 3 47 5 107 5 83 0 112 -3 116 -13 3 -10 8 -8 18 5 13 17 15 17
28 0 14 -19 10 -67 -8 -79 -8 -5 -7 -8 2 -8 7 0 12 -12 11 -27 -1 -17 -3 -21
-6 -10 -5 18 -23 24 -23 8 0 -21 13 -40 23 -34 6 3 7 1 3 -5 -4 -7 -2 -12 3
-12 6 0 11 -9 11 -21 0 -11 -4 -17 -10 -14 -5 3 -10 1 -10 -5 0 -8 -9 -10 -25
-6 -14 4 -25 2 -25 -4 0 -5 4 -10 10 -10 5 0 6 -8 3 -17 -5 -13 -2 -15 12 -10
15 6 16 5 5 -8 -7 -9 -21 -13 -31 -10 -22 7 -25 -8 -5 -24 11 -9 15 -9 19 1 3
8 6 6 6 -6 1 -13 7 -17 19 -14 12 4 18 -1 18 -13 0 -13 -4 -15 -13 -8 -9 8
-19 4 -37 -15 -18 -17 -22 -27 -14 -32 6 -4 17 1 24 11 12 16 13 16 11 -4 -1
-19 -7 -21 -58 -21 -72 0 -86 -6 -104 -41 -27 -51 -12 -108 32 -128 13 -6 74
-11 135 -11 l112 0 -28 -29 c-40 -42 -125 -81 -197 -91 -38 -6 -1148 -10
-2701 -10 -2560 0 -2637 -1 -2643 -19 -7 -23 -79 -31 -296 -31 -182 0 -241 9
-325 50 -80 39 -140 99 -178 180 l-31 65 -3 1600 -2 1599 37 -36 c21 -20 64
-53 97 -72z m6184 -746 c-2 -24 -6 -29 -25 -28 -28 3 -31 18 -3 18 11 0 19 3
19 8 -2 14 1 32 6 32 3 0 4 -13 3 -30z m446 -451 c8 -8 5 -10 -11 -5 -12 4
-24 2 -28 -4 -3 -5 -11 -10 -17 -10 -7 0 -7 5 1 14 9 11 9 15 -1 20 -7 3 0 3
16 1 16 -2 34 -9 40 -16z m3 -51 c-3 -8 -6 -5 -6 6 -1 11 2 17 5 13 3 -3 4
-12 1 -19z m-87 -128 c0 -5 -4 -10 -10 -10 -5 0 -10 5 -10 10 0 6 5 10 10 10
6 0 10 -4 10 -10z m-146 -9 c3 -5 -1 -14 -9 -21 -13 -11 -14 -10 -9 4 3 9 1
16 -4 16 -6 0 -14 -9 -17 -20 -3 -11 -11 -20 -16 -20 -6 0 -8 3 -6 8 2 4 7 15
10 25 7 18 42 24 51 8z m76 -5 c0 -3 -4 -8 -10 -11 -5 -3 -10 -1 -10 4 0 6 5
11 10 11 6 0 10 -2 10 -4z m45 -16 c-3 -5 1 -10 9 -10 9 0 16 -5 16 -10 0 -7
-6 -7 -20 0 -17 9 -20 8 -20 -10 0 -11 -4 -20 -9 -20 -12 0 -1 43 13 52 15 10
18 10 11 -2z m-75 -20 c0 -5 -5 -10 -11 -10 -5 0 -7 5 -4 10 3 6 8 10 11 10 2
0 4 -4 4 -10z m137 -8 c-10 -10 -14 -22 -10 -26 4 -4 0 -4 -9 -1 -15 6 -15 8
0 25 9 10 21 19 26 19 5 1 2 -7 -7 -17z m-210 -10 c7 -4 9 -12 5 -18 -4 -6
-13 -3 -24 8 -18 18 -5 25 19 10z m34 -25 c-10 -9 -11 -8 -5 6 3 10 9 15 12
12 3 -3 0 -11 -7 -18z m63 15 c3 -5 -1 -9 -9 -9 -8 0 -15 4 -15 9 0 4 4 8 9 8
6 0 12 -4 15 -8z m10 -31 c3 -5 -2 -15 -12 -22 -15 -12 -16 -12 -5 2 7 9 10
19 6 22 -3 4 -4 7 0 7 3 0 8 -4 11 -9z m-84 -5 c0 -11 -19 -15 -25 -6 -3 5 1
10 9 10 9 0 16 -2 16 -4z m36 -11 c-10 -7 -15 -18 -12 -24 4 -5 2 -12 -4 -16
-14 -9 -13 28 2 43 7 7 17 12 23 12 5 0 2 -7 -9 -15z m-122 -11 c3 -8 2 -12
-4 -9 -6 3 -10 10 -10 16 0 14 7 11 14 -7z m151 -24 c3 -5 -1 -10 -10 -10 -9
0 -13 5 -10 10 3 6 8 10 10 10 2 0 7 -4 10 -10z m-125 -19 c0 -11 -4 -22 -9
-25 -5 -3 -8 5 -7 19 1 29 16 34 16 6z m-100 -13 c0 -17 31 -42 38 -31 4 6 14
3 26 -8 11 -11 15 -19 10 -19 -6 0 -15 5 -20 10 -7 7 -17 5 -30 -5 -18 -14
-18 -14 9 -15 15 0 27 -3 27 -7 0 -5 -14 -8 -30 -8 -27 0 -30 3 -25 23 5 22
-8 31 -20 12 -3 -5 -17 -10 -31 -10 -30 0 -31 22 -1 53 21 22 47 25 47 5z m35
12 c3 -5 1 -10 -4 -10 -6 0 -11 5 -11 10 0 6 2 10 4 10 3 0 8 -4 11 -10z m32
-12 c-3 -8 -6 -5 -6 6 -1 11 2 17 5 13 3 -3 4 -12 1 -19z m83 8 c0 -2 -7 -6
-15 -10 -8 -3 -15 -1 -15 4 0 6 7 10 15 10 8 0 15 -2 15 -4z m53 -21 c-3 -9
-8 -14 -10 -11 -3 3 -2 9 2 15 9 16 15 13 8 -4z m92 5 c3 -6 -1 -7 -9 -4 -18
7 -21 14 -7 14 6 0 13 -4 16 -10z m-352 -89 c16 -27 16 -31 3 -31 -10 0 -13 6
-10 15 4 8 1 15 -5 15 -6 0 -11 7 -11 15 0 8 -4 15 -10 15 -5 0 -10 5 -10 11
0 17 21 -3 43 -40z m46 -1 c9 -5 8 -10 -4 -20 -13 -11 -15 -10 -10 3 4 8 2 18
-4 22 -6 3 -11 12 -11 18 0 8 3 7 9 -2 5 -7 14 -17 20 -21z m-109 -4 c0 -3 -4
-8 -10 -11 -5 -3 -10 -1 -10 4 0 6 5 11 10 11 6 0 10 -2 10 -4z m30 -5 c0 -5
-7 -11 -14 -14 -10 -4 -13 -1 -9 9 6 15 23 19 23 5z m203 -15 c4 -10 1 -13 -8
-9 -8 3 -12 9 -9 14 7 12 11 11 17 -5z m-103 -11 c0 -8 -4 -15 -10 -15 -5 0
-7 7 -4 15 4 8 8 15 10 15 2 0 4 -7 4 -15z m30 11 c0 -3 -4 -8 -10 -11 -5 -3
-10 -1 -10 4 0 6 5 11 10 11 6 0 10 -2 10 -4z m-120 -15 c0 -5 -7 -12 -16 -15
-14 -5 -15 -4 -4 9 14 17 20 19 20 6z m-56 -16 c3 -8 1 -15 -3 -15 -5 0 -11 7
-15 15 -3 8 -1 15 3 15 5 0 11 -7 15 -15z m86 -11 c0 -8 -5 -12 -10 -9 -6 4
-8 11 -5 16 9 14 15 11 15 -7z m105 -2 c-3 -3 -11 0 -18 7 -9 10 -8 11 6 5 10
-3 15 -9 12 -12z m-45 -2 c13 -8 13 -10 -2 -10 -9 0 -20 5 -23 10 -8 13 5 13
25 0z m-130 -20 c0 -5 -2 -10 -4 -10 -3 0 -8 5 -11 10 -3 6 -1 10 4 10 6 0 11
-4 11 -10z m77 -15 c0 -8 -4 -12 -9 -9 -5 3 -6 10 -3 15 9 13 12 11 12 -6z
m48 5 c-3 -5 -11 -10 -16 -10 -6 0 -7 5 -4 10 3 6 11 10 16 10 6 0 7 -4 4 -10z
m-225 -55 c0 -7 -7 -16 -16 -19 -15 -6 -15 -4 -3 11 12 15 12 16 -5 10 -16 -6
-17 -5 -6 8 14 16 30 11 30 -10z m100 0 c-7 -8 -17 -15 -23 -15 -6 0 -2 7 9
15 25 19 30 19 14 0z m-303 -130 c-4 -8 -12 -15 -19 -14 -10 0 -10 2 0 6 6 2
12 12 12 21 0 8 3 13 6 9 4 -3 4 -13 1 -22z m-124 -20 c-3 -8 -9 -15 -15 -15
-5 0 -6 5 -3 10 3 6 0 10 -7 10 -10 0 -9 3 2 9 18 12 31 5 23 -14z m44 -7 c-3
-8 -6 -5 -6 6 -1 11 2 17 5 13 3 -3 4 -12 1 -19z m-99 -12 c-7 -8 -15 -12 -17
-11 -5 6 10 25 20 25 5 0 4 -6 -3 -14z m82 -5 c0 -5 -7 -11 -14 -14 -10 -4
-13 -1 -9 9 6 15 23 19 23 5z m-50 -11 c0 -5 -2 -10 -4 -10 -3 0 -8 5 -11 10
-3 6 -1 10 4 10 6 0 11 -4 11 -10z m-858 -597 c-6 -2 -10 -9 -6 -14 7 -12 -5
-31 -17 -24 -12 8 8 45 24 44 9 0 9 -2 -1 -6z m31 -28 c-17 -22 -33 -32 -33
-20 0 14 26 45 38 45 9 0 8 -7 -5 -25z m147 -107 c0 -13 -23 -5 -28 10 -2 7 2
10 12 6 9 -3 16 -11 16 -16z m1256 -177 c-9 -13 -46 -15 -46 -2 0 5 10 7 22 3
18 -4 20 -2 14 14 -5 14 -4 16 5 7 6 -6 8 -16 5 -22z m41 13 c-3 -3 -12 -4
-19 -1 -8 3 -5 6 6 6 11 1 17 -2 13 -5z m-107 -14 c0 -5 -5 -10 -11 -10 -5 0
-7 5 -4 10 3 6 8 10 11 10 2 0 4 -4 4 -10z m62 -42 c-7 -7 -12 -8 -12 -2 0 14
12 26 19 19 2 -3 -1 -11 -7 -17z m-23 -5 c-1 -5 -1 -16 0 -27 1 -14 4 -16 15
-7 11 9 15 8 20 -4 4 -13 0 -16 -17 -14 -12 2 -28 0 -35 -5 -19 -11 -33 5 -22
24 7 10 10 11 10 3 0 -7 5 -13 11 -13 6 0 8 7 5 16 -3 9 -4 20 0 25 6 11 14
12 13 2z m111 -80 c0 -26 -3 -34 -9 -24 -5 8 -7 21 -4 30 4 14 4 14 -6 1 -9
-13 -13 -13 -28 4 -10 10 -12 16 -6 12 7 -4 21 -2 30 3 10 6 19 11 21 11 1 0
2 -17 2 -37z"/>
<path d="M5746 8278 c3 -4 0 -8 -5 -8 -22 0 -292 -219 -285 -231 2 -4 19 -11
36 -15 18 -3 44 -13 58 -22 23 -14 23 -13 -3 9 l-27 24 46 37 c44 36 47 37 74
23 26 -13 31 -12 86 21 94 56 120 95 94 144 -6 11 -17 17 -25 14 -8 -4 -15 -1
-15 4 0 6 -9 10 -19 9 -11 0 -17 -5 -15 -9z"/>
<path d="M5500 7940 c8 -5 24 -10 34 -10 26 0 18 6 -19 14 -22 5 -26 4 -15 -4z"/>
<path d="M4100 7473 c-19 -8 -42 -19 -50 -22 -23 -11 -50 -72 -50 -113 0 -21
-4 -38 -10 -38 -14 0 -12 -74 2 -88 7 -7 20 -12 29 -12 10 0 23 -15 32 -37 24
-60 43 -72 103 -64 85 12 131 54 141 131 4 26 13 44 24 51 34 18 21 99 -16 99
-17 0 -24 7 -28 28 -3 15 -15 40 -27 55 -18 23 -29 27 -68 26 -26 0 -63 -7
-82 -16z m88 -110 c2 -15 -2 -23 -11 -23 -8 0 -29 -3 -46 -6 -27 -6 -31 -4
-31 14 0 44 82 57 88 15z m22 -122 c0 -23 -25 -51 -45 -51 -18 0 -45 27 -45
45 0 12 21 19 73 24 11 0 17 -6 17 -18z"/>
<path d="M3428 7093 c7 -3 16 -2 19 1 4 3 -2 6 -13 5 -11 0 -14 -3 -6 -6z"/>
<path d="M3417 7043 c-4 -3 -7 -13 -7 -22 1 -13 3 -13 11 2 11 19 8 33 -4 20z"/>
<path d="M3440 6991 c0 -9 30 -24 36 -18 2 1 -6 8 -16 15 -11 7 -20 8 -20 3z"/>
<path d="M3177 6673 c-4 -3 -7 -14 -7 -22 0 -9 -25 -31 -55 -49 -57 -34 -69
-58 -40 -82 9 -7 18 -10 21 -7 3 2 24 -14 46 -37 l41 -41 -37 43 c-37 43 -37
44 -19 65 47 56 69 59 106 17 34 -38 94 -54 146 -40 60 16 80 55 50 101 -14
21 -23 24 -75 23 -32 -1 -63 1 -69 4 -9 6 -46 12 -75 14 -8 1 -18 5 -21 10 -3
4 -8 5 -12 1z"/>
<path d="M3068 6484 c6 -11 19 -27 28 -35 16 -13 16 -12 6 7 -6 11 -19 27 -28
35 -16 13 -16 12 -6 -7z"/>
<path d="M6979 6109 c-23 -19 -23 -20 -2 -10 12 6 25 16 28 21 10 16 -1 12
-26 -11z"/>
<path d="M3443 5013 c97 -2 257 -2 355 0 97 1 17 2 -178 2 -195 0 -275 -1
-177 -2z"/>
<path d="M4008 5013 c12 -2 30 -2 40 0 9 3 -1 5 -23 4 -22 0 -30 -2 -17 -4z"/>
<path d="M4133 5013 c9 -2 23 -2 30 0 6 3 -1 5 -18 5 -16 0 -22 -2 -12 -5z"/>
<path d="M4213 5013 c15 -2 37 -2 50 0 12 2 0 4 -28 4 -27 0 -38 -2 -22 -4z"/>
<path d="M4298 5013 c6 -2 18 -2 25 0 6 3 1 5 -13 5 -14 0 -19 -2 -12 -5z"/>
<path d="M4398 5013 c28 -2 76 -2 105 0 28 2 5 3 -53 3 -58 0 -81 -1 -52 -3z"/>
<path d="M4568 5013 c6 -2 18 -2 25 0 6 3 1 5 -13 5 -14 0 -19 -2 -12 -5z"/>
<path d="M4778 5013 c18 -2 45 -2 60 0 15 2 0 4 -33 4 -33 0 -45 -2 -27 -4z"/>
<path d="M5008 5013 c6 -2 18 -2 25 0 6 3 1 5 -13 5 -14 0 -19 -2 -12 -5z"/>
<path d="M5208 5013 c6 -2 18 -2 25 0 6 3 1 5 -13 5 -14 0 -19 -2 -12 -5z"/>
<path d="M5328 5013 c6 -2 18 -2 25 0 6 3 1 5 -13 5 -14 0 -19 -2 -12 -5z"/>
<path d="M5468 5013 c39 -2 105 -2 145 0 39 1 7 3 -73 3 -80 0 -112 -2 -72 -3z"/>
<path d="M5733 5013 c20 -2 54 -2 75 0 20 2 3 4 -38 4 -41 0 -58 -2 -37 -4z"/>
<path d="M5953 5013 c26 -2 67 -2 90 0 23 2 2 3 -48 3 -49 0 -68 -1 -42 -3z"/>
<path d="M8334 4276 c-17 -19 -18 -27 -8 -40 7 -10 15 -13 18 -7 3 5 1 11 -5
13 -8 3 -7 12 6 31 21 33 17 35 -11 3z"/>
<path d="M2173 4280 c-39 -16 -43 -41 -43 -243 0 -189 0 -194 23 -215 35 -33
79 -29 111 9 26 30 26 31 26 219 0 164 -2 190 -17 209 -21 24 -68 35 -100 21z"/>
<path d="M6103 4243 c15 -2 39 -2 55 0 15 2 2 4 -28 4 -30 0 -43 -2 -27 -4z"/>
<path d="M8151 4246 c9 -8 96 -12 115 -5 12 5 -8 8 -50 8 -38 1 -67 -1 -65 -3z"/>
<path d="M8338 4193 c6 -2 12 -11 12 -19 0 -8 5 -14 10 -14 7 0 7 6 0 20 -6
11 -16 20 -23 19 -9 0 -9 -2 1 -6z"/>
<path d="M8380 4180 c0 -5 5 -10 10 -10 6 0 10 5 10 10 0 6 -4 10 -10 10 -5 0
-10 -4 -10 -10z"/>
<path d="M8249 4153 c-13 -15 -12 -15 9 -4 23 12 28 21 13 21 -5 0 -15 -7 -22
-17z"/>
<path d="M8295 4160 c-3 -5 -1 -10 4 -10 6 0 11 5 11 10 0 6 -2 10 -4 10 -3 0
-8 -4 -11 -10z"/>
<path d="M8235 4100 c-3 -5 -1 -10 4 -10 6 0 11 5 11 10 0 6 -2 10 -4 10 -3 0
-8 -4 -11 -10z"/>
<path d="M8230 4060 c-9 -6 -10 -10 -3 -10 6 0 15 5 18 10 8 12 4 12 -15 0z"/>
<path d="M8190 4039 c0 -5 5 -7 10 -4 6 3 10 8 10 11 0 2 -4 4 -10 4 -5 0 -10
-5 -10 -11z"/>
<path d="M8152 4005 c12 -26 23 -31 33 -15 3 6 -1 10 -9 10 -9 0 -16 7 -16 15
0 8 -4 15 -10 15 -6 0 -5 -10 2 -25z"/>
<path d="M8210 4009 c0 -5 5 -7 10 -4 6 3 10 8 10 11 0 2 -4 4 -10 4 -5 0 -10
-5 -10 -11z"/>
<path d="M8060 3990 c0 -5 5 -10 10 -10 6 0 10 5 10 10 0 6 -4 10 -10 10 -5 0
-10 -4 -10 -10z"/>
<path d="M7920 3981 c0 -5 7 -11 14 -14 10 -4 13 -1 9 9 -6 15 -23 19 -23 5z"/>
<path d="M8130 3974 c0 -8 5 -12 10 -9 6 4 8 11 5 16 -9 14 -15 11 -15 -7z"/>
<path d="M8093 3969 c3 -9 0 -22 -6 -28 -8 -8 -8 -11 0 -11 17 0 25 32 12 44
-9 8 -10 7 -6 -5z"/>
<path d="M8000 3959 c0 -5 5 -7 10 -4 6 3 10 8 10 11 0 2 -4 4 -10 4 -5 0 -10
-5 -10 -11z"/>
<path d="M7668 3953 c7 -3 16 -2 19 1 4 3 -2 6 -13 5 -11 0 -14 -3 -6 -6z"/>
<path d="M8050 3950 c0 -5 5 -10 10 -10 6 0 10 5 10 10 0 6 -4 10 -10 10 -5 0
-10 -4 -10 -10z"/>
<path d="M7825 3940 c3 -5 8 -10 11 -10 2 0 4 5 4 10 0 6 -5 10 -11 10 -5 0
-7 -4 -4 -10z"/>
<path d="M8136 3938 c3 -5 16 -5 30 -2 14 4 24 2 24 -5 0 -6 5 -11 11 -11 6 0
9 6 6 13 -2 6 -20 12 -40 12 -19 1 -33 -3 -31 -7z"/>
<path d="M7850 3920 c0 -5 5 -10 10 -10 6 0 10 5 10 10 0 6 -4 10 -10 10 -5 0
-10 -4 -10 -10z"/>
<path d="M8115 3920 c3 -5 8 -10 11 -10 2 0 4 5 4 10 0 6 -5 10 -11 10 -5 0
-7 -4 -4 -10z"/>
<path d="M8030 3911 c25 -14 80 -21 80 -11 0 6 -3 9 -7 9 -5 -1 -10 -1 -13 0
-3 2 -21 4 -40 6 -22 3 -30 2 -20 -4z"/>
<path d="M8150 3905 c0 -9 6 -12 15 -9 8 4 15 7 15 9 0 2 -7 5 -15 9 -9 3 -15
0 -15 -9z"/>
<path d="M2150 3480 c-18 -18 -20 -35 -22 -157 -2 -195 -1 -205 28 -230 36
-33 77 -30 108 8 26 30 26 33 26 190 0 156 -1 160 -25 184 -31 32 -86 34 -115
5z"/>
<path d="M2153 2836 l-28 -24 0 -170 c0 -167 1 -171 24 -196 15 -16 35 -26 52
-26 78 0 89 28 89 229 l0 159 -31 26 c-38 32 -70 33 -106 2z"/>
<path d="M2151 2161 c-16 -16 -20 -41 -26 -159 -4 -77 -4 -158 0 -181 13 -77
92 -107 140 -55 24 26 25 31 25 194 0 163 -1 168 -25 194 -30 32 -85 36 -114
7z"/>
<path d="M7390 2014 c0 -8 5 -12 10 -9 6 3 10 10 10 16 0 5 -4 9 -10 9 -5 0
-10 -7 -10 -16z"/>
<path d="M7431 2024 c-1 -16 57 -56 64 -43 4 6 -3 13 -15 16 -14 4 -19 11 -15
21 4 12 3 12 -9 3 -11 -9 -15 -9 -19 1 -3 7 -6 8 -6 2z"/>
<path d="M7500 2016 c0 -9 5 -16 10 -16 6 0 10 4 10 9 0 6 -4 13 -10 16 -5 3
-10 -1 -10 -9z"/>
<path d="M7612 2018 c-15 -15 -15 -28 -1 -28 5 0 8 4 4 9 -3 5 3 11 12 13 11
2 14 6 7 10 -6 4 -16 2 -22 -4z"/>
<path d="M8091 2013 c-7 -8 -10 -17 -6 -21 4 -4 10 -1 12 6 3 6 10 9 16 5 20
-13 35 -12 41 3 6 17 -10 19 -20 2 -5 -8 -10 -7 -18 4 -10 13 -13 13 -25 1z"/>
<path d="M7196 2004 c-9 -24 -7 -27 9 -10 17 17 19 26 6 26 -5 0 -12 -7 -15
-16z"/>
<path d="M7238 1998 c-20 -25 -23 -38 -7 -38 5 0 8 4 5 8 -3 5 4 15 15 22 10
8 19 18 19 22 0 15 -15 8 -32 -14z"/>
<path d="M7330 2005 c0 -8 -4 -15 -10 -15 -5 0 -10 -8 -10 -17 0 -15 4 -13 20
7 22 28 25 40 10 40 -5 0 -10 -7 -10 -15z"/>
<path d="M7990 2014 c0 -5 7 -17 15 -27 13 -18 14 -18 25 3 9 16 9 20 1 15 -7
-4 -18 -1 -26 5 -8 7 -15 9 -15 4z"/>
<path d="M8172 2000 c-10 -17 -10 -20 3 -20 8 0 15 2 15 4 0 2 3 11 6 20 9 23
-9 20 -24 -4z"/>
<path d="M8230 2005 c0 -8 5 -15 10 -15 6 0 10 7 10 15 0 8 -4 15 -10 15 -5 0
-10 -7 -10 -15z"/>
<path d="M7680 1995 c-9 -11 -10 -15 -1 -15 7 0 19 7 27 15 13 13 13 15 1 15
-8 0 -20 -7 -27 -15z"/>
<path d="M7743 1984 c10 -19 12 -37 6 -51 -5 -14 -5 -23 2 -23 26 0 17 89 -10
98 -10 3 -9 -3 2 -24z"/>
<path d="M7280 1990 c0 -5 5 -10 10 -10 6 0 10 5 10 10 0 6 -4 10 -10 10 -5 0
-10 -4 -10 -10z"/>
<path d="M7530 1996 c0 -2 7 -7 16 -10 8 -3 12 -2 9 4 -6 10 -25 14 -25 6z"/>
<path d="M8045 1990 c-3 -5 1 -10 10 -10 9 0 13 5 10 10 -3 6 -8 10 -10 10 -2
0 -7 -4 -10 -10z"/>
<path d="M8217 1974 c4 -24 0 -36 -18 -53 -17 -16 -19 -21 -7 -21 23 0 43 55
30 83 -10 20 -10 19 -5 -9z"/>
<path d="M7120 1980 c-8 -5 -12 -11 -10 -14 3 -2 14 2 24 10 22 15 10 19 -14
4z"/>
<path d="M7829 1981 c-6 -16 -39 -24 -39 -10 0 5 -4 9 -10 9 -17 0 -11 -14 10
-28 17 -10 23 -10 36 3 9 8 14 21 11 28 -3 9 -5 8 -8 -2z"/>
<path d="M7502 1968 c-7 -7 -12 -17 -12 -24 0 -7 -6 -15 -12 -17 -10 -4 -10
-6 -1 -6 7 -1 18 9 24 22 7 12 17 25 23 29 7 5 7 8 1 8 -6 0 -16 -5 -23 -12z"/>
<path d="M7970 1970 c0 -5 5 -10 10 -10 6 0 10 5 10 10 0 6 -4 10 -10 10 -5 0
-10 -4 -10 -10z"/>
<path d="M8103 1973 c-7 -2 -13 -12 -12 -21 0 -11 2 -12 6 -4 7 17 33 15 33
-3 0 -10 -10 -15 -29 -15 -20 0 -30 -6 -34 -20 -6 -24 -22 -26 -31 -5 -3 9 0
15 8 15 7 0 18 11 24 25 7 15 8 25 2 25 -6 0 -10 -6 -10 -13 0 -7 -9 -18 -20
-25 -11 -7 -20 -18 -20 -25 0 -9 -10 -12 -30 -9 -18 3 -30 0 -30 -7 0 -7 10
-10 24 -7 13 2 27 2 30 -1 10 -10 68 -14 62 -4 -4 5 -3 17 0 26 5 13 14 15 35
11 24 -4 29 -2 29 13 0 24 -10 51 -19 50 -3 0 -12 -3 -18 -6z"/>
<path d="M7255 1960 c4 -6 11 -8 16 -5 14 9 11 15 -7 15 -8 0 -12 -5 -9 -10z"/>
<path d="M7339 1963 c-1 -4 -1 -11 0 -15 0 -5 -3 -8 -9 -8 -5 0 -10 -4 -10
-10 0 -16 14 -11 27 10 8 12 9 21 3 25 -6 3 -11 3 -11 -2z"/>
<path d="M7415 1960 c3 -5 8 -10 11 -10 2 0 4 5 4 10 0 6 -5 10 -11 10 -5 0
-7 -4 -4 -10z"/>
<path d="M7450 1960 c0 -5 5 -10 11 -10 5 0 7 5 4 10 -3 6 -8 10 -11 10 -2 0
-4 -4 -4 -10z"/>
<path d="M7570 1961 c0 -5 7 -11 15 -15 8 -3 15 -1 15 3 0 5 -7 11 -15 15 -8
3 -15 1 -15 -3z"/>
<path d="M7660 1956 c0 -9 5 -16 10 -16 6 0 10 4 10 9 0 6 -4 13 -10 16 -5 3
-10 -1 -10 -9z"/>
<path d="M7710 1960 c0 -5 5 -10 10 -10 6 0 10 5 10 10 0 6 -4 10 -10 10 -5 0
-10 -4 -10 -10z"/>
<path d="M7860 1961 c0 -17 15 -19 28 -5 11 12 9 14 -8 14 -11 0 -20 -4 -20
-9z"/>
<path d="M8185 1960 c4 -6 11 -8 16 -5 14 9 11 15 -7 15 -8 0 -12 -5 -9 -10z"/>
<path d="M7086 1951 c-4 -5 -2 -12 3 -15 5 -4 12 -2 15 3 4 5 2 12 -3 15 -5 4
-12 2 -15 -3z"/>
<path d="M7130 1950 c0 -5 7 -10 16 -10 8 0 12 5 9 10 -3 6 -10 10 -16 10 -5
0 -9 -4 -9 -10z"/>
<path d="M7290 1950 c0 -5 5 -10 11 -10 5 0 7 5 4 10 -3 6 -8 10 -11 10 -2 0
-4 -4 -4 -10z"/>
<path d="M7530 1950 c0 -5 5 -10 10 -10 6 0 10 5 10 10 0 6 -4 10 -10 10 -5 0
-10 -4 -10 -10z"/>
<path d="M7930 1950 c0 -5 4 -10 9 -10 6 0 13 5 16 10 3 6 -1 10 -9 10 -9 0
-16 -4 -16 -10z"/>
<path d="M8010 1950 c0 -5 5 -10 10 -10 6 0 10 5 10 10 0 6 -4 10 -10 10 -5 0
-10 -4 -10 -10z"/>
<path d="M6977 1943 c-12 -12 -7 -20 21 -37 26 -17 27 -17 6 1 -11 10 -19 24
-16 31 4 13 -1 16 -11 5z"/>
<path d="M7846 1942 c2 -3 -1 -11 -7 -19 -8 -9 -8 -13 -1 -13 16 0 26 20 15
30 -6 4 -8 5 -7 2z"/>
<path d="M7888 1929 c-17 -18 -17 -19 2 -19 11 0 20 2 20 4 0 2 3 11 6 20 8
21 -7 19 -28 -5z"/>
<path d="M8163 1935 c-8 -9 -9 -16 -3 -20 6 -3 13 1 16 10 9 21 2 26 -13 10z"/>
<path d="M7240 1930 c0 -5 5 -10 11 -10 5 0 7 5 4 10 -3 6 -8 10 -11 10 -2 0
-4 -4 -4 -10z"/>
<path d="M7362 1928 c-7 -7 -12 -16 -12 -21 0 -5 7 -1 16 8 9 9 14 18 12 20
-2 3 -10 -1 -16 -7z"/>
<path d="M7395 1930 c-3 -5 -1 -10 4 -10 6 0 11 5 11 10 0 6 -2 10 -4 10 -3 0
-8 -4 -11 -10z"/>
<path d="M7570 1924 c0 -8 5 -12 10 -9 6 4 8 11 5 16 -9 14 -15 11 -15 -7z"/>
<path d="M7615 1930 c-3 -5 -1 -10 4 -10 6 0 11 5 11 10 0 6 -2 10 -4 10 -3 0
-8 -4 -11 -10z"/>
<path d="M7985 1929 c-10 -15 3 -25 16 -12 7 7 7 13 1 17 -6 3 -14 1 -17 -5z"/>
<path d="M7097 1910 c-12 -12 -15 -20 -8 -25 6 -3 14 1 17 9 3 9 12 16 20 16
8 0 14 5 14 10 0 16 -23 11 -43 -10z"/>
<path d="M7170 1920 c0 -5 5 -10 10 -10 6 0 10 5 10 10 0 6 -4 10 -10 10 -5 0
-10 -4 -10 -10z"/>
<path d="M7273 1914 c-15 -16 -16 -24 -4 -24 8 0 24 30 19 35 -2 2 -9 -3 -15
-11z"/>
<path d="M7431 1911 c-15 -15 -22 -16 -32 -7 -15 12 6 -18 32 -46 15 -17 16
-17 29 7 8 15 20 23 27 20 8 -2 11 0 8 5 -3 6 -1 10 4 10 6 0 11 5 11 11 0 8
-5 8 -15 -1 -8 -7 -15 -9 -15 -6 0 4 -6 1 -14 -6 -8 -7 -12 -16 -9 -20 5 -9
-21 -11 -30 -2 -11 11 4 33 19 27 8 -3 14 1 14 11 0 21 -6 20 -29 -3z"/>
<path d="M7525 1920 c3 -5 8 -10 11 -10 2 0 4 5 4 10 0 6 -5 10 -11 10 -5 0
-7 -4 -4 -10z"/>
<path d="M7640 1920 c0 -5 5 -10 10 -10 6 0 10 5 10 10 0 6 -4 10 -10 10 -5 0
-10 -4 -10 -10z"/>
<path d="M7716 1921 c-3 -5 1 -14 9 -21 11 -9 14 -8 12 9 -1 22 -12 28 -21 12z"/>
<path d="M7787 1923 c-4 -7 -3 -14 3 -18 6 -4 7 -12 3 -18 -4 -7 0 -6 10 2 18
14 24 37 8 27 -5 -4 -11 -1 -13 6 -3 9 -6 9 -11 1z"/>
<path d="M7926 1909 c-11 -10 -15 -19 -10 -19 12 1 44 25 44 34 0 11 -15 5
-34 -15z"/>
<path d="M7207 1903 c-7 -6 21 -32 36 -33 4 0 7 7 7 16 0 8 -4 12 -10 9 -5 -3
-10 -1 -10 4 0 12 -13 15 -23 4z"/>
<path d="M7615 1901 c3 -5 1 -21 -5 -36 -6 -15 -6 -24 -1 -20 6 3 14 -2 19
-11 7 -12 14 -14 28 -7 28 14 67 10 72 -7 4 -13 3 -13 -10 -2 -10 8 -18 9 -22
3 -4 -6 1 -14 11 -19 23 -12 74 -12 67 -1 -3 5 -12 9 -20 9 -8 0 -14 7 -14 16
0 8 4 12 10 9 5 -3 21 2 35 11 29 19 33 13 8 -11 -12 -13 -13 -19 -4 -24 8 -5
10 -18 5 -36 -7 -27 -8 -27 -21 -9 -12 16 -15 17 -23 4 -15 -23 -12 -27 17
-27 15 0 29 -6 31 -12 5 -14 32 -15 32 -1 0 6 -7 10 -15 10 -17 0 -20 16 -5
25 14 9 12 42 -2 48 -10 4 -9 8 2 16 8 6 15 16 15 23 0 7 10 14 23 16 19 3 21
6 11 18 -16 19 -26 18 -32 -5 -3 -14 -11 -18 -26 -14 -12 3 -21 1 -21 -6 0 -6
-7 -11 -15 -11 -8 0 -15 7 -15 15 0 8 5 15 10 15 6 0 10 5 10 10 0 6 -8 5 -20
-2 -11 -7 -18 -18 -16 -25 7 -17 -5 -24 -21 -11 -7 6 -16 8 -20 4 -4 -3 -13 6
-20 21 l-13 28 4 -28 c2 -19 -2 -31 -11 -34 -20 -8 -34 17 -22 38 6 12 4 19
-7 23 -8 3 -13 2 -9 -3z"/>
<path d="M8090 1898 c0 -26 18 -31 38 -12 15 16 15 17 1 12 -9 -4 -22 -1 -28
5 -8 8 -11 7 -11 -5z"/>
<path d="M7300 1885 c-14 -16 -10 -18 14 -9 9 3 16 10 16 15 0 14 -16 11 -30
-6z"/>
<path d="M7539 1893 c-1 -5 -1 -12 0 -16 1 -4 -3 -17 -9 -27 -7 -14 -7 -20 0
-20 5 0 10 7 10 16 0 8 4 13 8 10 4 -2 8 6 8 20 0 21 -14 35 -17 17z"/>
<path d="M7877 1888 c4 -7 8 -16 8 -20 0 -9 15 -11 15 -3 0 3 0 12 0 20 0 8
-7 15 -16 15 -10 0 -12 -4 -7 -12z"/>
<path d="M8152 1888 c2 -6 10 -14 16 -16 7 -2 10 2 6 12 -7 18 -28 22 -22 4z"/>
<path d="M7570 1880 c0 -5 5 -10 10 -10 6 0 10 5 10 10 0 6 -4 10 -10 10 -5 0
-10 -4 -10 -10z"/>
<path d="M7695 1880 c3 -5 8 -10 11 -10 2 0 4 5 4 10 0 6 -5 10 -11 10 -5 0
-7 -4 -4 -10z"/>
<path d="M8203 1883 c12 -19 -9 -34 -35 -24 -14 5 -31 5 -38 1 -8 -5 -22 -4
-31 1 -10 5 -20 5 -23 1 -3 -5 -19 -7 -36 -4 -16 2 -30 0 -31 -4 0 -5 -2 -17
-4 -26 -2 -10 1 -18 6 -18 5 0 8 -5 7 -11 -2 -6 3 -14 10 -16 6 -3 12 2 12 11
0 9 7 16 15 16 9 0 12 6 9 15 -5 12 -9 13 -21 4 -10 -9 -17 -9 -24 -2 -16 16
28 28 46 13 12 -10 15 -10 15 -1 0 7 5 9 11 5 8 -4 7 -9 -2 -15 -7 -4 -10 -11
-6 -15 4 -4 19 3 33 17 l26 24 15 -22 c20 -29 27 -29 41 2 14 30 32 34 25 5
-6 -23 9 -27 26 -7 8 10 3 19 -21 37 -17 12 -28 19 -25 13z"/>
<path d="M7060 1869 c0 -5 5 -7 10 -4 6 3 10 8 10 11 0 2 -4 4 -10 4 -5 0 -10
-5 -10 -11z"/>
<path d="M7120 1870 c0 -5 5 -10 10 -10 6 0 10 5 10 10 0 6 -4 10 -10 10 -5 0
-10 -4 -10 -10z"/>
<path d="M7316 1855 c-16 -14 -26 -28 -23 -32 6 -5 57 41 57 53 0 7 -4 5 -34
-21z"/>
<path d="M7210 1856 c0 -9 5 -16 10 -16 6 0 10 4 10 9 0 6 -4 13 -10 16 -5 3
-10 -1 -10 -9z"/>
<path d="M7483 1863 c-7 -2 -13 -9 -13 -14 0 -6 3 -8 8 -6 4 3 13 -1 20 -9 12
-13 8 -18 -10 -15 -5 0 -8 -3 -8 -9 0 -5 -4 -10 -10 -10 -5 0 -10 7 -10 15 0
8 -5 15 -11 15 -19 0 -4 -35 16 -39 11 -2 22 -6 25 -10 8 -11 54 -41 62 -41 5
0 8 7 8 16 0 8 -4 13 -9 9 -5 -3 -12 -1 -16 5 -3 5 -1 10 4 10 6 0 11 6 11 14
0 8 10 22 22 30 12 9 19 19 14 23 -6 7 -37 -24 -61 -61 -9 -13 -11 -14 -24 0
-11 13 -10 16 7 21 18 4 19 7 5 34 -8 16 -15 29 -16 28 -1 0 -8 -3 -14 -6z"/>
<path d="M7930 1859 c0 -7 -8 -18 -17 -25 -10 -7 -15 -15 -11 -19 3 -3 15 3
26 15 19 21 21 21 30 3 9 -14 13 -16 23 -5 7 6 9 12 5 12 -5 0 -3 7 4 15 8 9
8 15 2 15 -6 0 -13 -6 -16 -12 -5 -10 -7 -10 -12 0 -7 15 -34 16 -34 1z"/>
<path d="M7090 1853 c1 -15 49 -43 55 -33 3 5 -1 10 -10 10 -8 0 -18 7 -21 15
-6 15 -24 21 -24 8z"/>
<path d="M7150 1849 c0 -5 5 -7 10 -4 6 3 10 8 10 11 0 2 -4 4 -10 4 -5 0 -10
-5 -10 -11z"/>
<path d="M7250 1846 c0 -8 6 -16 14 -19 10 -4 12 0 9 14 -6 22 -23 26 -23 5z"/>
<path d="M7370 1850 c0 -5 4 -10 9 -10 6 0 13 5 16 10 3 6 -1 10 -9 10 -9 0
-16 -4 -16 -10z"/>
<path d="M7850 1840 c0 -5 5 -10 10 -10 6 0 10 5 10 10 0 6 -4 10 -10 10 -5 0
-10 -4 -10 -10z"/>
<path d="M7185 1830 c-3 -5 1 -10 10 -10 9 0 13 5 10 10 -3 6 -8 10 -10 10 -2
0 -7 -4 -10 -10z"/>
<path d="M7351 1824 c12 -15 11 -16 -9 -10 -17 6 -21 4 -16 -8 7 -18 34 -22
34 -5 0 5 5 7 11 3 8 -4 8 0 0 15 -7 11 -17 21 -23 21 -6 0 -5 -6 3 -16z"/>
<path d="M7402 1829 c2 -7 10 -15 17 -17 8 -3 12 1 9 9 -2 7 -10 15 -17 17 -8
3 -12 -1 -9 -9z"/>
<path d="M8131 1828 c-1 -10 -7 -18 -15 -18 -8 0 -17 -4 -20 -9 -3 -5 13 -9
35 -9 22 -1 47 -6 55 -13 11 -9 14 -8 14 5 0 9 -8 16 -19 16 -10 0 -26 10 -34
23 -13 18 -16 19 -16 5z"/>
<path d="M7220 1825 c0 -3 8 -15 19 -26 16 -17 19 -18 24 -5 4 10 1 16 -8 16
-8 0 -15 5 -15 10 0 6 -4 10 -10 10 -5 0 -10 -2 -10 -5z"/>
<path d="M7665 1820 c-3 -5 -1 -10 4 -10 6 0 11 5 11 10 0 6 -2 10 -4 10 -3 0
-8 -4 -11 -10z"/>
<path d="M7578 1803 c-13 -13 -14 -22 -6 -44 12 -36 30 -37 57 -3 11 14 24 23
30 20 12 -8 42 4 36 14 -2 4 -16 5 -29 3 -15 -3 -32 1 -41 11 -20 19 -25 19
-47 -1z m41 -29 c-5 -6 -6 -13 -3 -16 3 -3 1 -9 -5 -13 -6 -3 -11 -1 -11 5 0
6 -4 8 -10 5 -13 -8 -13 11 0 36 9 15 13 17 24 7 9 -8 11 -17 5 -24z"/>
<path d="M7830 1810 c0 -5 5 -10 10 -10 6 0 10 5 10 10 0 6 -4 10 -10 10 -5 0
-10 -4 -10 -10z"/>
<path d="M7870 1809 c0 -7 -12 -22 -27 -35 -16 -13 -23 -24 -16 -24 6 0 20 -3
30 -6 15 -5 15 -4 3 5 -8 5 -11 13 -7 17 4 4 20 -5 37 -21 21 -20 34 -25 47
-20 17 8 17 8 1 12 -21 5 -24 23 -4 23 20 0 45 -32 29 -37 -14 -5 -18 -33 -5
-33 31 1 37 44 11 76 -15 18 -28 18 -51 -3 -16 -14 -18 -14 -18 0 0 8 6 17 13
20 6 2 9 8 4 12 -4 5 -14 0 -21 -11 -8 -10 -18 -16 -22 -11 -4 4 -2 13 4 19
15 15 16 28 2 28 -5 0 -10 -5 -10 -11z"/>
<path d="M7940 1805 c0 -9 5 -15 11 -13 6 2 11 8 11 13 0 5 -5 11 -11 13 -6 2
-11 -4 -11 -13z"/>
<path d="M7160 1799 c0 -5 5 -7 10 -4 6 3 10 8 10 11 0 2 -4 4 -10 4 -5 0 -10
-5 -10 -11z"/>
<path d="M7972 1797 c-9 -10 -6 -17 8 -30 25 -21 30 -21 30 -2 0 8 -4 15 -10
15 -5 0 -7 7 -4 15 7 18 -10 20 -24 2z"/>
<path d="M8063 1803 c-7 -2 -13 -9 -13 -13 0 -5 -11 -21 -25 -36 -14 -15 -25
-32 -25 -39 0 -16 25 -37 33 -28 13 12 7 25 -8 19 -19 -7 -19 5 1 30 13 16 15
16 10 2 -3 -11 0 -18 8 -18 9 0 12 8 8 25 -3 17 0 25 10 25 9 0 14 -9 14 -22
-1 -14 4 -22 12 -20 7 1 12 -5 10 -15 -2 -12 3 -18 15 -17 20 2 21 -1 7 -27
-6 -11 -7 -19 -1 -19 5 0 12 7 15 16 4 10 13 13 27 9 13 -4 27 -1 40 11 18 17
18 17 -8 31 -27 14 -42 6 -43 -22 0 -5 -13 4 -29 20 -16 17 -26 34 -24 39 3 4
9 2 14 -5 7 -11 11 -12 17 -1 5 7 16 10 25 6 11 -4 17 -1 17 9 0 14 -23 18
-35 5 -9 -9 -66 22 -60 33 7 10 6 10 -12 2z m127 -103 c0 -5 -7 -10 -16 -10
-8 0 -12 5 -9 10 3 6 10 10 16 10 5 0 9 -4 9 -10z"/>
<path d="M7275 1790 c-8 -13 5 -13 25 0 13 8 13 10 -2 10 -9 0 -20 -4 -23 -10z"/>
<path d="M7386 1792 c-3 -6 -1 -14 5 -17 15 -10 25 3 12 16 -7 7 -13 7 -17 1z"/>
<path d="M7190 1785 c0 -2 18 -14 40 -25 33 -17 40 -18 40 -6 0 10 -6 13 -15
10 -8 -4 -17 1 -21 10 -5 14 -44 24 -44 11z"/>
<path d="M7430 1776 c0 -9 5 -16 10 -16 6 0 10 4 10 9 0 6 -4 13 -10 16 -5 3
-10 -1 -10 -9z"/>
<path d="M7300 1769 c0 -6 6 -9 14 -6 18 7 96 -13 96 -24 0 -5 7 -9 15 -9 26
0 16 14 -24 33 -42 19 -101 23 -101 6z"/>
<path d="M7716 1771 c-4 -7 -5 -15 -2 -18 9 -9 19 4 14 18 -4 11 -6 11 -12 0z"/>
<path d="M7302 1745 l-23 -13 33 -11 c30 -10 31 -9 14 4 -15 11 -16 15 -5 15
8 0 20 -5 27 -12 7 -7 12 -9 12 -4 0 8 -26 37 -32 35 -2 -1 -13 -7 -26 -14z"/>
<path d="M7460 1749 c0 -6 6 -9 12 -7 16 6 52 -38 45 -55 -2 -7 -1 -21 3 -32
5 -15 -1 -27 -22 -46 -35 -34 -39 -93 -7 -133 20 -26 21 -26 164 -26 140 0
144 1 174 26 25 21 31 34 32 67 1 23 4 32 6 20 2 -13 9 -23 14 -23 6 0 9 10 7
23 -2 17 3 23 21 25 14 2 21 0 17 -6 -4 -6 -2 -13 3 -17 5 -3 14 3 20 12 6 10
11 13 11 8 0 -6 -7 -20 -15 -32 -13 -19 -13 -22 0 -27 10 -3 15 1 15 14 0 10
8 23 18 29 16 9 16 11 -2 24 -20 15 -72 17 -94 3 -8 -4 -12 -1 -12 9 0 9 5 13
10 10 18 -11 11 17 -7 31 -24 18 -39 18 -24 0 13 -15 4 -49 -10 -40 -5 3 -6
10 -3 16 4 6 1 14 -5 18 -8 5 -3 17 18 39 32 34 39 34 20 -1 -9 -17 -8 -19 8
-16 10 2 17 10 16 16 -4 15 23 16 32 2 3 -5 13 -10 22 -10 12 0 11 5 -7 20
-13 11 -29 20 -37 20 -8 0 -12 4 -8 9 3 5 -8 9 -25 9 -16 -1 -30 -5 -30 -10 0
-5 6 -6 13 -3 6 4 2 -2 -10 -13 -12 -11 -25 -31 -29 -46 -6 -24 -10 -26 -60
-26 -35 0 -53 4 -51 11 1 6 -4 14 -10 16 -7 3 -13 0 -13 -6 0 -13 -82 -25
-115 -17 -14 4 -23 11 -20 16 3 6 2 10 -2 10 -5 0 -10 8 -11 18 -1 9 -3 26 -4
37 -4 30 -68 63 -68 34z"/>
<path d="M7645 1750 c4 -6 -1 -18 -11 -25 -18 -13 -18 -14 -1 -15 9 0 17 4 17
10 0 5 11 12 25 16 34 8 31 19 -6 22 -20 2 -28 -1 -24 -8z"/>
<path d="M7373 1715 c0 -14 4 -25 9 -25 5 0 7 4 3 9 -3 5 -1 12 5 16 6 4 8 11
5 16 -11 17 -22 9 -22 -16z"/>
<path d="M7724 1724 c3 -9 9 -27 12 -40 3 -13 11 -24 16 -24 6 0 7 7 4 16 -3
9 -9 27 -12 40 -3 13 -11 24 -16 24 -6 0 -7 -7 -4 -16z"/>
<path d="M8135 1730 c-3 -5 -1 -10 4 -10 6 0 11 5 11 10 0 6 -2 10 -4 10 -3 0
-8 -4 -11 -10z"/>
<path d="M7465 1725 c-5 -2 -22 -6 -37 -9 -26 -6 -41 -36 -18 -36 6 0 9 6 8
13 -2 7 6 11 21 9 14 -1 28 3 33 10 5 9 8 7 8 -7 0 -11 5 -27 10 -35 8 -12 10
-11 10 6 0 24 -21 53 -35 49z"/>
<path d="M7544 1714 c3 -9 6 -19 6 -24 0 -11 55 -7 57 5 1 6 -9 9 -22 7 -17
-2 -25 1 -25 12 0 9 -5 16 -11 16 -6 0 -8 -7 -5 -16z"/>
<path d="M7671 1714 c-11 -14 -11 -18 3 -32 15 -15 16 -15 11 -1 -4 10 0 19
10 23 9 3 13 10 10 16 -8 14 -18 12 -34 -6z"/>
<path d="M7770 1711 c27 -22 40 -26 40 -12 0 5 -8 11 -17 15 -10 3 -25 9 -33
12 -8 3 -4 -4 10 -15z"/>
<path d="M8049 1696 c-7 -14 -16 -26 -21 -26 -4 0 -8 -6 -8 -14 0 -8 -6 -16
-12 -19 -10 -4 -10 -7 0 -18 10 -10 12 -10 12 0 0 7 10 26 21 43 19 26 23 28
31 14 9 -16 38 -23 38 -8 0 4 -11 18 -25 30 l-25 24 -11 -26z"/>
<path d="M7440 1675 c0 -8 5 -15 10 -15 6 0 10 7 10 15 0 8 -4 15 -10 15 -5 0
-10 -7 -10 -15z"/>
<path d="M7980 1677 c0 -8 -7 -18 -16 -21 -8 -3 -12 -10 -9 -16 9 -15 25 -12
25 5 0 8 7 15 16 15 9 0 14 5 12 12 -6 18 -28 22 -28 5z"/>
<path d="M7570 1665 c-14 -16 -3 -20 19 -6 8 5 9 11 3 15 -5 3 -15 -1 -22 -9z"/>
<path d="M7616 1664 c-8 -21 2 -33 13 -16 4 7 15 10 26 6 13 -5 16 -3 13 7 -7
21 -44 23 -52 3z"/>
<path d="M7777 1659 c-4 -16 -3 -18 9 -8 16 13 19 29 5 29 -5 0 -11 -9 -14
-21z"/>
<path d="M7900 1655 c0 -8 5 -15 10 -15 6 0 10 7 10 15 0 8 -4 15 -10 15 -5 0
-10 -7 -10 -15z"/>
<path d="M8140 1657 c0 -8 6 -14 14 -14 8 0 12 6 9 14 -3 7 -9 13 -14 13 -5 0
-9 -6 -9 -13z"/>
<path d="M7720 1650 c0 -5 7 -10 16 -10 8 0 12 5 9 10 -3 6 -10 10 -16 10 -5
0 -9 -4 -9 -10z"/>
<path d="M8039 1633 c-8 -16 -20 -34 -26 -41 -7 -7 -13 -18 -13 -23 0 -17 20
-49 31 -49 6 0 3 7 -5 16 -18 17 -21 43 -6 45 6 1 15 3 20 4 6 1 13 3 16 4 4
0 1 7 -5 15 -9 10 -8 16 4 26 16 14 20 30 7 30 -5 0 -15 -12 -23 -27z"/>
<path d="M8080 1640 c0 -5 5 -10 10 -10 6 0 10 5 10 10 0 6 -4 10 -10 10 -5 0
-10 -4 -10 -10z"/>
<path d="M7925 1629 c-9 -14 -2 -20 14 -10 8 6 9 11 3 15 -6 3 -14 1 -17 -5z"/>
<path d="M2162 1614 c-49 -34 -48 -115 1 -149 30 -21 160 -21 181 1 20 20 30
57 21 84 -17 54 -156 97 -203 64z"/>
<path d="M2636 1605 c-34 -32 -36 -92 -3 -129 21 -24 27 -25 163 -28 153 -3
183 4 203 49 18 40 13 73 -18 104 l-29 29 -145 0 c-139 0 -145 -1 -171 -25z"/>
<path d="M3246 1609 c-22 -17 -26 -29 -26 -68 0 -38 5 -52 26 -72 24 -23 32
-24 152 -24 151 0 172 5 195 44 25 43 22 78 -12 112 l-29 29 -140 0 c-126 0
-142 -2 -166 -21z"/>
<path d="M3847 1610 c-51 -40 -43 -126 14 -155 34 -18 233 -21 291 -4 78 21
92 136 21 168 -14 6 -82 11 -162 11 -123 0 -141 -2 -164 -20z"/>
<path d="M4455 1605 c-19 -18 -25 -35 -25 -68 0 -83 55 -104 236 -92 89 6 110
11 132 30 38 33 38 98 -1 131 -27 23 -35 24 -173 24 -141 0 -146 -1 -169 -25z"/>
<path d="M5065 1605 c-32 -31 -34 -91 -4 -129 l20 -26 153 0 c145 0 153 1 173
23 11 12 23 33 26 46 8 31 -15 86 -41 100 -12 6 -80 11 -162 11 -136 0 -142
-1 -165 -25z"/>
<path d="M5687 1619 c-30 -18 -49 -73 -36 -106 23 -61 28 -63 194 -63 150 0
152 0 176 26 16 18 24 37 24 64 0 27 -8 46 -24 64 -24 26 -27 26 -170 26 -85
0 -154 -5 -164 -11z"/>
<path d="M6291 1613 c-30 -24 -42 -82 -25 -121 9 -23 22 -33 51 -41 48 -14
227 -14 274 -1 71 20 92 99 40 151 l-29 29 -145 0 c-123 0 -148 -3 -166 -17z"/>
<path d="M6889 1601 c-21 -21 -29 -39 -29 -64 0 -55 27 -79 96 -88 86 -11 209
-10 237 0 69 27 91 110 41 156 -26 24 -32 25 -171 25 l-145 0 -29 -29z"/>
<path d="M7980 1610 c0 -5 5 -10 10 -10 6 0 10 5 10 10 0 6 -4 10 -10 10 -5 0
-10 -4 -10 -10z"/>
<path d="M7900 1555 c0 -8 5 -15 10 -15 6 0 10 7 10 15 0 8 -4 15 -10 15 -5 0
-10 -7 -10 -15z"/>
<path d="M7970 1545 c0 -8 5 -15 10 -15 6 0 10 7 10 15 0 8 -4 15 -10 15 -5 0
-10 -7 -10 -15z"/>
<path d="M8272 3078 c-16 -16 -15 -38 2 -38 7 0 19 6 25 14 16 19 -10 41 -27
24z"/>
<path d="M5140 7315 c0 -5 5 -17 10 -25 5 -8 10 -10 10 -5 0 6 -5 17 -10 25
-5 8 -10 11 -10 5z"/>
<path d="M8328 3483 c7 -3 16 -2 19 1 4 3 -2 6 -13 5 -11 0 -14 -3 -6 -6z"/>
<path d="M8468 3483 c6 -2 18 -2 25 0 6 3 1 5 -13 5 -14 0 -19 -2 -12 -5z"/>
<path d="M8486 3454 c-5 -14 -4 -15 9 -4 17 14 19 20 6 20 -5 0 -12 -7 -15
-16z"/>
<path d="M8510 3435 c0 -9 5 -13 10 -10 18 11 10 -7 -12 -26 -16 -15 -18 -19
-5 -19 8 0 18 -6 21 -12 3 -7 3 -3 0 10 -6 23 2 27 24 14 9 -7 6 -15 -15 -36
-15 -15 -29 -23 -31 -17 -2 6 -8 8 -14 5 -6 -4 -14 0 -19 7 -6 10 -9 10 -9 2
0 -7 -7 -10 -15 -7 -8 4 -15 1 -15 -4 0 -15 17 -24 24 -13 3 5 15 7 26 4 16
-4 19 -11 14 -32 l-7 -26 22 23 c13 13 30 21 39 17 19 -5 48 30 32 40 -5 3
-13 -3 -19 -12 -9 -15 -10 -14 -7 7 2 14 8 24 14 23 6 -1 16 5 24 14 9 12 9
15 0 9 -18 -11 -54 3 -48 20 3 7 -4 18 -14 24 -16 9 -20 8 -20 -5z"/>
<path d="M8457 3425 c-7 -15 14 -26 31 -16 7 4 5 11 -8 18 -14 10 -19 9 -23
-2z"/>
<path d="M8573 3415 c0 -8 4 -12 9 -9 4 3 8 9 8 15 0 5 -4 9 -8 9 -5 0 -9 -7
-9 -15z"/>
<path d="M8425 3396 c-18 -22 -36 -58 -32 -62 3 -3 15 11 27 31 22 35 25 55 5
31z"/>
<path d="M8460 3379 c0 -5 5 -7 10 -4 6 3 10 8 10 11 0 2 -4 4 -10 4 -5 0 -10
-5 -10 -11z"/>
<path d="M6519 3323 c-13 -16 -12 -17 4 -4 9 7 17 15 17 17 0 8 -8 3 -21 -13z"/>
<path d="M8365 3321 c-3 -5 -1 -12 5 -16 5 -3 10 1 10 9 0 18 -6 21 -15 7z"/>
<path d="M8395 3310 c-3 -5 -1 -10 4 -10 6 0 11 5 11 10 0 6 -2 10 -4 10 -3 0
-8 -4 -11 -10z"/>
<path d="M8337 3272 c-10 -10 -17 -24 -17 -30 0 -7 -5 -12 -12 -12 -6 0 -9 -3
-5 -6 3 -3 15 -3 27 1 14 5 19 12 15 23 -3 8 0 19 7 23 7 4 10 10 7 14 -3 3
-13 -3 -22 -13z"/>
<path d="M6480 3259 c-7 -11 -10 -23 -7 -25 2 -2 9 7 15 21 14 30 7 33 -8 4z"/>
<path d="M8225 3210 c3 -5 8 -10 11 -10 2 0 4 5 4 10 0 6 -5 10 -11 10 -5 0
-7 -4 -4 -10z"/>
<path d="M8300 3201 c0 -8 -7 -11 -17 -6 -15 5 -16 4 -5 -6 9 -10 15 -10 24
-1 6 6 9 15 5 19 -4 3 -7 1 -7 -6z"/>
<path d="M6451 3184 c0 -11 3 -14 6 -6 3 7 2 16 -1 19 -3 4 -6 -2 -5 -13z"/>
<path d="M8250 3160 c0 -5 5 -10 11 -10 5 0 7 5 4 10 -3 6 -8 10 -11 10 -2 0
-4 -4 -4 -10z"/>
<path d="M8146 3137 c3 -10 9 -15 12 -12 3 3 0 11 -7 18 -10 9 -11 8 -5 -6z"/>
<path d="M8185 3130 c-3 -5 1 -10 10 -10 9 0 13 5 10 10 -3 6 -8 10 -10 10 -2
0 -7 -4 -10 -10z"/>
<path d="M8020 3110 c-9 -6 -10 -10 -3 -10 6 0 15 5 18 10 8 12 4 12 -15 0z"/>
<path d="M8120 3110 c0 -5 5 -10 11 -10 5 0 7 5 4 10 -3 6 -8 10 -11 10 -2 0
-4 -4 -4 -10z"/>
<path d="M8150 3024 c0 -8 5 -12 10 -9 6 4 8 11 5 16 -9 14 -15 11 -15 -7z"/>
<path d="M8102 2974 c-14 -13 -19 -25 -13 -28 6 -4 18 5 27 19 22 33 15 37
-14 9z"/>
<path d="M8056 2924 c-5 -14 -4 -15 9 -4 17 14 19 20 6 20 -5 0 -12 -7 -15
-16z"/>
<path d="M7915 2810 c-3 -5 -1 -10 4 -10 6 0 11 5 11 10 0 6 -2 10 -4 10 -3 0
-8 -4 -11 -10z"/>
<path d="M7940 2800 c0 -5 5 -10 10 -10 6 0 10 5 10 10 0 6 -4 10 -10 10 -5 0
-10 -4 -10 -10z"/>
<path d="M7844 2787 c3 -10 6 -21 6 -23 0 -2 7 -4 15 -4 8 0 15 5 15 11 0 5
-4 8 -9 4 -6 -3 -15 3 -21 12 -11 17 -11 17 -6 0z"/>
<path d="M7755 2770 c-3 -5 -1 -10 4 -10 6 0 11 5 11 10 0 6 -2 10 -4 10 -3 0
-8 -4 -11 -10z"/>
<path d="M7805 2770 c-3 -5 -1 -10 6 -10 6 0 17 -7 24 -17 7 -9 14 -12 17 -7
3 5 -5 17 -17 27 -15 10 -26 13 -30 7z"/>
<path d="M7655 2750 c-3 -5 -1 -10 4 -10 6 0 11 5 11 10 0 6 -2 10 -4 10 -3 0
-8 -4 -11 -10z"/>
<path d="M7555 2690 c3 -5 -2 -10 -11 -10 -14 0 -15 -3 -6 -12 10 -10 15 -10
22 2 13 20 12 30 -1 30 -5 0 -7 -4 -4 -10z"/>
</g>
</svg>
